# Blender 4.3.2
# www.blender.org
mtllib test2.mtl
o Plane
v -22.226812 -1.068859 35.057354
v 27.240385 -1.068859 35.057354
v -22.226812 -1.068859 -37.283855
v 27.240385 -1.068859 -37.283855
vn -0.0000 1.0000 -0.0000
vt 0.000000 0.000000
vt 1.000000 0.000000
vt 1.000000 1.000000
vt 0.000000 1.000000
s 0
usemtl Material2
f 1/1/1 2/2/1 4/3/1 3/4/1
o Cube1
v 0.007465 -1.068322 1.648528
v 0.007465 1.918911 1.648528
v -0.863209 -1.068322 0.805753
v -0.863209 1.918911 0.805753
v 0.834646 -1.068322 0.793963
v 0.834646 1.918911 0.793963
v -0.036028 -1.068322 -0.048812
v -0.036028 1.918911 -0.048812
vn -0.6955 -0.0000 0.7185
vn -0.7185 -0.0000 -0.6955
vn 0.6955 -0.0000 -0.7185
vn 0.7185 -0.0000 0.6955
vn -0.0000 -1.0000 -0.0000
vn -0.0000 1.0000 -0.0000
vt 0.375000 0.000000
vt 0.625000 0.000000
vt 0.625000 0.250000
vt 0.375000 0.250000
vt 0.625000 0.500000
vt 0.375000 0.500000
vt 0.625000 0.750000
vt 0.375000 0.750000
vt 0.625000 1.000000
vt 0.375000 1.000000
vt 0.125000 0.500000
vt 0.125000 0.750000
vt 0.875000 0.500000
vt 0.875000 0.750000
s 0
usemtl Material1
f 5/5/2 6/6/2 8/7/2 7/8/2
f 7/8/3 8/7/3 12/9/3 11/10/3
f 11/10/4 12/9/4 10/11/4 9/12/4
f 9/12/5 10/11/5 6/13/5 5/14/5
f 7/15/6 11/10/6 9/12/6 5/16/6
f 12/9/7 8/17/7 6/18/7 10/11/7
o 平面
v -24.511583 -2.063859 2.509405
v 25.526205 -2.063859 -14.896494
v -24.564154 24.963001 2.358280
v 25.473635 24.963001 -15.047619
vn 0.3285 0.0059 0.9445
vt 0.000000 0.000000
vt 1.000000 0.000000
vt 1.000000 1.000000
vt 0.000000 1.000000
s 0
usemtl 材质
f 13/19/8 14/20/8 16/21/8 15/22/8
o 立方体
v 0.717766 -1.085536 -1.127528
v 0.717766 0.914464 -1.127528
v 1.265390 -1.085536 -3.051095
v 1.265390 0.914464 -3.051095
v 2.641333 -1.085536 -0.579904
v 2.641333 0.914464 -0.579904
v 3.188957 -1.085536 -2.503470
v 3.188957 0.914464 -2.503470
vn -0.9618 -0.0000 -0.2738
vn 0.2738 -0.0000 -0.9618
vn 0.9618 -0.0000 0.2738
vn -0.2738 -0.0000 0.9618
vn -0.0000 -1.0000 -0.0000
vn -0.0000 1.0000 -0.0000
vt 0.375000 0.000000
vt 0.625000 0.000000
vt 0.625000 0.250000
vt 0.375000 0.250000
vt 0.625000 0.500000
vt 0.375000 0.500000
vt 0.625000 0.750000
vt 0.375000 0.750000
vt 0.625000 1.000000
vt 0.375000 1.000000
vt 0.125000 0.500000
vt 0.125000 0.750000
vt 0.875000 0.500000
vt 0.875000 0.750000
s 0
usemtl Material0
f 17/23/9 18/24/9 20/25/9 19/26/9
f 19/26/10 20/25/10 24/27/10 23/28/10
f 23/28/11 24/27/11 22/29/11 21/30/11
f 21/30/12 22/29/12 18/31/12 17/32/12
f 19/33/13 23/28/13 21/30/13 17/34/13
f 24/27/14 20/35/14 18/36/14 22/29/14
