# Blender 4.3.2
# www.blender.org
mtllib test.mtl
o Cube
v 0.175941 1.000000 -1.585071
v 0.175941 -1.000000 -1.585071
v 0.175941 1.000000 0.414929
v 0.175941 -1.000000 0.414929
v -1.824059 1.000000 -1.585071
v -1.824059 -1.000000 -1.585071
v -1.824059 1.000000 0.414929
v -1.824059 -1.000000 0.414929
vn -0.0000 1.0000 -0.0000
vn -0.0000 -0.0000 1.0000
vn -1.0000 -0.0000 -0.0000
vn -0.0000 -1.0000 -0.0000
vn 1.0000 -0.0000 -0.0000
vn -0.0000 -0.0000 -1.0000
vt 0.625000 0.500000
vt 0.875000 0.500000
vt 0.875000 0.750000
vt 0.625000 0.750000
vt 0.375000 0.750000
vt 0.625000 1.000000
vt 0.375000 1.000000
vt 0.375000 0.000000
vt 0.625000 0.000000
vt 0.625000 0.250000
vt 0.375000 0.250000
vt 0.125000 0.500000
vt 0.375000 0.500000
vt 0.125000 0.750000
s 0
usemtl Material
f 1/1/1 5/2/1 7/3/1 3/4/1
f 4/5/2 3/4/2 7/6/2 8/7/2
f 8/8/3 7/9/3 5/10/3 6/11/3
f 6/12/4 2/13/4 4/5/4 8/14/4
f 2/13/5 1/1/5 3/4/5 4/5/5
f 6/11/6 5/10/6 1/1/6 2/13/6
o Cube.001
v -4.344551 1.976842 1.159273
v -3.041723 0.793016 0.209960
v -2.976550 2.351687 2.569260
v -1.673722 1.167862 1.619947
v -5.001217 0.409025 2.213190
v -3.698389 -0.774800 1.263877
v -3.633216 0.783871 3.623177
v -2.330388 -0.399954 2.673864
vn -0.6514 0.5919 0.4747
vn 0.6840 0.1874 0.7050
vn -0.3283 -0.7839 0.5270
vn 0.6514 -0.5919 -0.4747
vn 0.3283 0.7839 -0.5270
vn -0.6840 -0.1874 -0.7050
vt 0.625000 0.500000
vt 0.875000 0.500000
vt 0.875000 0.750000
vt 0.625000 0.750000
vt 0.375000 0.750000
vt 0.625000 1.000000
vt 0.375000 1.000000
vt 0.375000 0.000000
vt 0.625000 0.000000
vt 0.625000 0.250000
vt 0.375000 0.250000
vt 0.125000 0.500000
vt 0.375000 0.500000
vt 0.125000 0.750000
s 0
usemtl Material.001
f 9/15/7 13/16/7 15/17/7 11/18/7
f 12/19/8 11/18/8 15/20/8 16/21/8
f 16/22/9 15/23/9 13/24/9 14/25/9
f 14/26/10 10/27/10 12/19/10 16/28/10
f 10/27/11 9/15/11 11/18/11 12/19/11
f 14/25/12 13/24/12 9/15/12 10/27/12
